<?xml version="1.0" encoding="UTF-8" standalone="no"?><!DOCTYPE svg PUBLIC "-//W3C//DTD SVG 1.1//EN" "http://www.w3.org/Graphics/SVG/1.1/DTD/svg11.dtd"><svg width="100%" height="100%" viewBox="0 0 1000 500" version="1.1" xmlns="http://www.w3.org/2000/svg" xmlns:xlink="http://www.w3.org/1999/xlink" xml:space="preserve" xmlns:serif="http://www.serif.com/" style="fill-rule:evenodd;clip-rule:evenodd;stroke-linecap:round;stroke-linejoin:round;stroke-miterlimit:1.5;"><circle cx="374.076" cy="366.571" r="40.956" style="fill:#fff;stroke:#000;stroke-opacity:0;stroke-width:1.38px;"/><circle cx="376.733" cy="364.577" r="36.637" style="fill:#0d0d0d;"/><g><path d="M328.929,129.477c-1.986,3.215 9.918,-32.622 47.241,-40.809c2.628,-0.577 9.968,5.31 12.782,7.188c30.654,20.458 23.232,34.146 23.232,34.146c0,0 -9.77,179.622 -9.619,179.578c0.152,-0.044 -45.447,-11.151 -57.212,-0.361c-11.766,10.79 13.115,-87.573 -16.424,-179.742Z" style="fill:#fff;stroke:#000;stroke-opacity:0;stroke-width:1.38px;"/><g><path d="M337.484,160.174c0,0 -25.138,-27.808 -87.177,-31.988c-62.039,-4.18 -188.503,23.507 -190.317,26.492c-1.815,2.985 -14.691,33.912 -1.637,43.312c13.053,9.4 27.137,1.505 27.012,1.474c-0.124,-0.03 -11.988,35.115 2.456,78.776c14.444,43.661 53.392,70.446 53.207,70.499c-0.185,0.052 139.425,-1.335 140.384,-1.338c14.472,-0.038 55.919,-87.895 61.802,-101.902c4.557,-10.849 13.523,-64.028 -5.73,-85.325Z" style="fill:#fff;stroke:#000;stroke-opacity:0;stroke-width:1.38px;"/><path d="M104.382,182.261c0,0 -6.255,27.978 -1.852,56.812c4.404,28.835 141.95,-17.234 114.548,-1.091c-181.153,106.721 1.787,13.627 -3.459,23.072c-15.904,28.637 -61.202,68.069 -61.075,69.784c0.132,1.791 68.925,0.114 98.487,-0.69c8.441,-0.232 16.358,-4.146 21.667,-10.712c30.287,-37.166 56.269,-70.627 46.789,-126.19c-16.582,-27.445 -54.126,-34.277 -107.486,-31.479c-44.526,2.334 -107.619,20.494 -107.619,20.494Z" style="fill:#fff;stroke:#000;stroke-width:1.37px;"/></g><g><path d="M412.708,161.678c0,0 28.413,-25.373 90.452,-30.736c62.039,-5.363 188.502,19.915 190.317,22.865c1.815,2.951 14.691,33.632 1.637,43.281c-13.053,9.649 -27.137,2.022 -27.012,1.989c0.124,-0.032 11.988,34.887 -2.456,78.823c-14.444,43.936 -53.392,71.463 -53.207,71.512c0.185,0.049 -139.426,1.322 -140.385,1.338c-14.471,0.238 -55.918,-86.829 -61.801,-100.724c-4.557,-10.763 -1.886,-98.168 2.455,-88.348Z" style="fill:#fff;stroke:#000;stroke-opacity:0;stroke-width:1.38px;"/><path d="M649.085,182.237c0,0 6.255,27.858 1.852,56.777c-4.404,28.918 -123.951,-0.414 -96.549,15.207c181.154,103.269 -19.786,-0.455 -14.54,8.89c15.903,28.334 61.202,66.903 61.075,68.621c-0.132,1.788 -68.61,1.428 -98.283,1.188c-8.562,-0.072 -16.651,-3.939 -22.083,-10.557c-30.197,-36.487 -56.035,-69.429 -46.577,-125.042c16.582,-27.761 54.126,-35.309 107.486,-33.528c44.526,1.486 107.619,18.444 107.619,18.444Z" style="fill:#fff;stroke:#000;stroke-width:1.38px;"/></g></g><g><path d="M335.41,131.809c-1.951,2.969 9.745,-30.213 46.418,-37.487c2.582,-0.512 9.794,5.021 12.559,6.79c30.12,19.274 22.827,31.922 22.827,31.922c0,0 -9.599,166.754 -9.451,166.715c0.149,-0.04 -44.655,-10.76 -56.215,-0.842c-11.561,9.918 12.886,-81.225 -16.138,-167.098Z" style="fill:#0d0d0d;stroke:#000;stroke-width:1.38px;"/><g><path d="M343.816,160.398c0,0 -24.7,-26.051 -85.658,-30.483c-60.958,-4.432 -185.218,20.166 -187.001,22.922c-1.784,2.757 -14.435,31.369 -1.609,40.216c12.826,8.846 26.664,1.637 26.542,1.608c-0.122,-0.029 -11.779,32.51 2.413,73.192c14.192,40.682 52.462,65.906 52.28,65.953c-0.182,0.047 136.996,-0.006 137.938,0c14.219,0.093 54.945,-81.145 60.725,-94.104c4.478,-10.037 13.288,-59.352 -5.63,-79.304Z" style="fill:#0d0d0d;stroke:#000;stroke-width:1.38px;"/><path d="M114.775,178.851c0,0 -6.146,25.931 -1.819,52.753c4.327,26.822 139.477,-14.752 112.552,0c-177.997,97.523 1.755,12.673 -3.399,21.399c-15.626,26.459 -60.136,62.685 -60.011,64.279c0.13,1.666 67.932,0.712 96.905,0.228c8.234,-0.14 16.017,-3.788 21.393,-10.028c29.657,-34.145 55.027,-64.968 45.736,-116.524c-16.293,-25.639 -53.183,-32.317 -105.613,-30.191c-43.75,1.774 -105.744,18.084 -105.744,18.084Z" style="fill:#fff;stroke:#000;stroke-width:1.38px;"/></g><g><path d="M417.729,162.461c0,0 27.918,-23.317 88.876,-27.749c60.958,-4.432 185.218,20.166 187.001,22.923c1.784,2.757 14.435,31.369 1.609,40.215c-12.826,8.847 -26.664,1.638 -26.542,1.609c0.122,-0.029 11.779,32.51 -2.413,73.192c-14.192,40.682 -52.462,65.906 -52.28,65.953c0.182,0.047 -136.996,-0.006 -137.938,0c-14.219,0.093 -54.945,-81.146 -60.725,-94.104c-4.478,-10.037 -1.853,-91.199 2.412,-82.039Z" style="fill:#0d0d0d;stroke:#000;stroke-width:1.38px;"/><path d="M649.987,183.649c0,0 6.147,25.93 1.82,52.753c-4.327,26.822 -121.79,-1.481 -94.866,13.271c177.997,97.523 -19.441,-0.599 -14.287,8.128c15.626,26.459 60.136,62.684 60.011,64.278c-0.13,1.667 -67.932,0.713 -96.905,0.229c-8.234,-0.14 -16.017,-3.788 -21.393,-10.028c-29.657,-34.145 -55.027,-64.969 -45.736,-116.524c16.292,-25.639 53.183,-32.317 105.613,-30.191c43.75,1.774 105.743,18.084 105.743,18.084Z" style="fill:#fff;stroke:#000;stroke-width:1.38px;"/></g></g><text x="204.17px" y="291.21px" style="font-family:'BebasNeue', 'Bebas Neue', sans-serif;font-size:176.947px;">C</text><text x="703.019px" y="258.492px" style="font-family:'BebasNeue', 'Bebas Neue', sans-serif;font-size:122.203px;fill:#fff;stroke:#fff;stroke-width:1px;stroke-linecap:butt;stroke-miterlimit:1.41421;">CARINE</text><g transform="matrix(0.594093,0,0,0.594093,393.816,-245.218)"><text x="520px" y="940px" style="font-family:'BebasNeue', 'Bebas Neue', sans-serif;font-size:119.99px;fill:#fff;">IS</text><text x="606.273px" y="940px" style="font-family:'BebasNeue', 'Bebas Neue', sans-serif;font-size:119.99px;fill:#fff;stroke:#fff;stroke-width:1.68px;stroke-linecap:butt;stroke-miterlimit:1.41421;">A<tspan x="653.309px " y="940px ">W</tspan>ESOME</text></g><text x="477.327px" y="295.835px" style="font-family:'BebasNeue', 'Bebas Neue', sans-serif;font-size:176.947px;">A</text></svg>